<?xml version="1.0" encoding="utf-8"?>
<!-- Generator: Adobe Illustrator 15.0.2, SVG Export Plug-In . SVG Version: 6.00 Build 0)  -->
<!DOCTYPE svg PUBLIC "-//W3C//DTD SVG 1.1//EN" "http://www.w3.org/Graphics/SVG/1.1/DTD/svg11.dtd">
<svg version="1.1" id="レイヤー_1" xmlns="http://www.w3.org/2000/svg" xmlns:xlink="http://www.w3.org/1999/xlink" x="0px"
	 y="0px" width="156px" height="108px" viewBox="0 0 156 108" enable-background="new 0 0 156 108" xml:space="preserve">
<path id="cup" fill="#DDDDDD" d="M117,15V5c0-2.806-2.18-5-5-5H5C2.179,0,0,2.194,0,5v71c3.095,18.217,19.939,32,39,32h39
	c12.29,0,23.186-5.777,30-15h9c21.537,0.273,39-17.313,39-39C156,32.309,138.537,14.726,117,15L117,15L117,15L117,15z M117,73V34
	c10.492,0,19,8.73,19,20C136,64.27,127.492,73,117,73L117,73L117,73z"/>
</svg>
