<?xml version="1.0" encoding="utf-8"?>
<!-- Generator: Adobe Illustrator 15.0.2, SVG Export Plug-In . SVG Version: 6.00 Build 0)  -->
<!DOCTYPE svg PUBLIC "-//W3C//DTD SVG 1.1//EN" "http://www.w3.org/Graphics/SVG/1.1/DTD/svg11.dtd">
<svg version="1.1" id="レイヤー_1" xmlns="http://www.w3.org/2000/svg" xmlns:xlink="http://www.w3.org/1999/xlink" x="0px"
	 y="0px" width="106px" height="47px" viewBox="0 0 106 47" enable-background="new 0 0 106 47" xml:space="preserve">
<path fill="#DDDDDD" d="M75,47c1.973,0,2.974-1.174,3-3c4.453-12.812,50.152-21.389,12-40c-4.281-1.506-9.48-3.061-11-3
	c-0.771,0.08,1.951,2.005,5,4c31.783,20.271,2.513,14.188-11,39C72.646,45.826,73.994,47,75,47L75,47z"/>
<path fill="#F18D42" d="M54,47c1.8,0,2.937-1.174,3-2c2.817-13.093,24.119-16.979,8-40c-1.659-1.841-4.709-3.979-6-4
	c-1.668-0.026-1.796,2.054-1,4c16.17,15.795,0.824,26.875-6,40C51.803,45.826,52.934,47,54,47L54,47z"/>
<path fill="#DDDDDD" d="M32,44c-0.668,1.824,0.193,3,2,3c1.246,0,2.723-1.176,3-3c1.081-9.299-6.999-18.268-2-27
	c-0.07-1.252-1.93-2.771-4-3c-2.749-0.182-4.886,0.967-5,2C25.449,27.515,32.956,34.553,32,44L32,44z"/>
<path fill="#DDDDDD" d="M11,44c-1.106,1.835-1.019,3,0,3c1.873,0,3.851-1.17,4-3c5.421-13.09-21.229-24.086-5-41
	c1.524-1.496,2.193-2.989,1-3C9.265-0.016,6.255,1.411,5,3C-10.843,19.386,17.871,30.837,11,44L11,44z"/>
</svg>
