<?xml version="1.0" encoding="UTF-8" standalone="no"?>
<svg width="41px" height="49px" viewBox="0 0 41 49" version="1.1" xmlns="http://www.w3.org/2000/svg" xmlns:xlink="http://www.w3.org/1999/xlink">
    <!-- Generator: Sketch 40 (33762) - http://www.bohemiancoding.com/sketch -->
    <title>a</title>
    <desc>Created with Sketch.</desc>
    <defs></defs>
    <g id="Page-1" stroke="none" stroke-width="1" fill="none" fill-rule="evenodd">
        <g id="Artboard" transform="translate(-301.000000, -192.000000)" fill="#333333">
            <path d="M315.28,240.12 C320.32,240.12 324.56,237.8 328.32,234.44 L328.64,234.44 L329.68,239 L341.28,239 L341.28,213.16 C341.28,198.92 334.64,192.36 322.88,192.36 C315.76,192.36 309.28,194.76 303.28,198.36 L308.24,207.72 C312.8,205.16 316.56,203.72 320.16,203.72 C324.8,203.72 326.72,205.88 327.04,209.56 C309.28,211.48 301.76,216.68 301.76,226.28 C301.76,233.88 306.88,240.12 315.28,240.12 L315.28,240.12 Z M320.16,229.08 C317.2,229.08 315.28,227.8 315.28,225.16 C315.28,221.96 318.16,219.4 327.04,218.2 L327.04,225.48 C324.96,227.72 323.04,229.08 320.16,229.08 L320.16,229.08 Z" id="a"></path>
        </g>
    </g>
</svg>