<?xml version="1.0" encoding="UTF-8" standalone="no"?>
<svg width="44px" height="66px" viewBox="0 0 44 66" version="1.1" xmlns="http://www.w3.org/2000/svg" xmlns:xlink="http://www.w3.org/1999/xlink">
    <!-- Generator: Sketch 40 (33762) - http://www.bohemiancoding.com/sketch -->
    <title>d</title>
    <desc>Created with Sketch.</desc>
    <defs></defs>
    <g id="Page-1" stroke="none" stroke-width="1" fill="none" fill-rule="evenodd">
        <g id="Artboard" transform="translate(-351.000000, -175.000000)" fill="#333333">
            <path d="M370.08,240.12 C374.4,240.12 378.8,237.8 382,234.6 L382.32,234.6 L383.36,239 L394.96,239 L394.96,175.08 L380.64,175.08 L380.64,190.28 L381.2,197.08 C378.24,194.2 375.28,192.36 370.24,192.36 C360.8,192.36 351.44,201.32 351.44,216.28 C351.44,231.08 358.72,240.12 370.08,240.12 L370.08,240.12 Z M373.84,228.44 C368.96,228.44 366.08,224.76 366.08,216.04 C366.08,207.64 369.68,203.96 373.6,203.96 C376,203.96 378.48,204.68 380.64,206.68 L380.64,224.6 C378.72,227.56 376.56,228.44 373.84,228.44 L373.84,228.44 Z" id="d"></path>
        </g>
    </g>
</svg>