<?xml version="1.0" encoding="UTF-8" standalone="no"?>
<svg width="46px" height="67px" viewBox="0 0 46 67" version="1.1" xmlns="http://www.w3.org/2000/svg" xmlns:xlink="http://www.w3.org/1999/xlink">
    <!-- Generator: Sketch 40 (33762) - http://www.bohemiancoding.com/sketch -->
    <title>g</title>
    <desc>Created with Sketch.</desc>
    <defs></defs>
    <g id="Page-1" stroke="none" stroke-width="1" fill="none" fill-rule="evenodd">
        <g id="Artboard" transform="translate(-489.000000, -192.000000)" fill="#333333">
            <path d="M509.08,258.12 C524.92,258.12 534.84,251.32 534.84,241.72 C534.84,233.48 528.52,230.04 517.32,230.04 L510.12,230.04 C505.24,230.04 503.4,229.08 503.4,227 C503.4,225.48 503.8,224.76 504.84,223.8 C506.84,224.36 508.68,224.6 510.2,224.6 C520.28,224.6 528.36,219.96 528.36,209.32 C528.36,207.16 527.8,205.08 527.08,203.8 L534.12,203.8 L534.12,193.48 L517.4,193.48 C515.32,192.76 512.84,192.36 510.2,192.36 C500.36,192.36 491.16,197.8 491.16,208.92 C491.16,214.2 494.12,218.44 497.32,220.68 L497.32,221 C494.36,223.08 492.28,226.28 492.28,229.48 C492.28,233.32 494.04,235.72 496.44,237.32 L496.44,237.72 C492.2,239.88 489.96,242.92 489.96,246.68 C489.96,254.84 498.6,258.12 509.08,258.12 L509.08,258.12 Z M510.2,216.04 C506.92,216.04 504.44,213.64 504.44,208.92 C504.44,204.28 506.92,201.88 510.2,201.88 C513.56,201.88 515.96,204.28 515.96,208.92 C515.96,213.64 513.56,216.04 510.2,216.04 L510.2,216.04 Z M511.32,249.24 C505.48,249.24 501.64,247.64 501.64,244.44 C501.64,242.92 502.36,241.64 503.8,240.36 C505.24,240.76 507,240.92 510.28,240.92 L514.6,240.92 C518.84,240.92 521.24,241.48 521.24,244.2 C521.24,247.08 517.16,249.24 511.32,249.24 L511.32,249.24 Z" id="g"></path>
        </g>
    </g>
</svg>