<?xml version="1.0" encoding="UTF-8" standalone="no"?>
<svg width="45px" height="49px" viewBox="0 0 45 49" version="1.1" xmlns="http://www.w3.org/2000/svg" xmlns:xlink="http://www.w3.org/1999/xlink">
    <!-- Generator: Sketch 40 (33762) - http://www.bohemiancoding.com/sketch -->
    <title>o</title>
    <desc>Created with Sketch.</desc>
    <defs></defs>
    <g id="Page-1" stroke="none" stroke-width="1" fill="none" fill-rule="evenodd">
        <g id="Artboard" transform="translate(-248.000000, -192.000000)" fill="#333333">
            <path d="M270.52,240.12 C282.04,240.12 292.76,231.32 292.76,216.28 C292.76,201.16 282.04,192.36 270.52,192.36 C258.92,192.36 248.2,201.16 248.2,216.28 C248.2,231.32 258.92,240.12 270.52,240.12 L270.52,240.12 Z M270.52,228.6 C265.16,228.6 262.76,223.8 262.76,216.28 C262.76,208.68 265.16,203.88 270.52,203.88 C275.8,203.88 278.2,208.68 278.2,216.28 C278.2,223.8 275.8,228.6 270.52,228.6 L270.52,228.6 Z" id="o"></path>
        </g>
    </g>
</svg>